<?xml version="1.0" standalone="no"?><!DOCTYPE svg PUBLIC "-//W3C//DTD SVG 1.1//EN" "http://www.w3.org/Graphics/SVG/1.1/DTD/svg11.dtd"><svg t="1742561442019" class="icon" viewBox="0 0 1024 1024" version="1.1" xmlns="http://www.w3.org/2000/svg" p-id="6845" xmlns:xlink="http://www.w3.org/1999/xlink" width="256" height="256"><path d="M584.704 541.184h148.48l-29.184 29.184c-15.36 15.36-15.36 40.96 0 56.32 7.68 7.68 17.92 11.776 28.16 11.776s20.48-4.096 28.16-11.776l96.256-96.256c7.68-7.68 11.776-17.408 11.776-28.16s-4.096-20.48-11.776-28.16l-98.304-98.304c-7.68-7.68-17.408-11.776-28.16-11.776s-20.48 4.096-28.16 11.776c-7.68 7.68-11.776 17.408-11.776 28.16s4.096 20.48 11.776 28.16l29.184 29.184h-146.432c-22.016 0-39.936 17.92-39.936 39.936s17.92 39.936 39.936 39.936zM267.264 628.224c7.68 7.68 17.92 11.776 28.16 11.776s20.48-4.096 28.16-11.776c7.68-7.68 11.776-17.408 11.776-28.16s-4.096-20.48-11.776-28.16l-29.184-29.184h153.088c22.016 0 39.936-17.92 39.936-39.936s-17.92-39.936-39.936-39.936H292.352l29.184-29.184c15.36-15.36 15.36-40.96 0-56.32s-40.96-15.36-56.32 0L168.96 473.6c-7.68 7.68-11.776 17.408-11.776 28.16s4.096 20.48 11.776 28.16l98.304 98.304z" p-id="6846" fill="#ffffff"></path><path d="M889.344 50.176H134.656c-50.176 0-91.136 40.448-91.136 90.112v743.936c0 49.664 40.96 90.112 91.136 90.112h754.688c50.176 0 91.136-40.448 91.136-90.112V140.288c0-49.664-40.96-90.112-91.136-90.112zM127.488 140.288c0-3.584 3.072-6.656 7.168-6.656h754.688c3.584 0 7.168 3.072 7.168 6.656v743.936c0 3.584-3.072 6.656-7.168 6.656H134.656c-3.584 0-7.168-3.072-7.168-6.656V140.288z" p-id="6847" fill="#ffffff"></path></svg>