<?xml version="1.0" standalone="no"?>
<!DOCTYPE svg PUBLIC "-//W3C//DTD SVG 1.1//EN" "http://www.w3.org/Graphics/SVG/1.1/DTD/svg11.dtd">
<svg t="1738253400574" class="icon" viewBox="0 0 1024 1024" version="1.1" xmlns="http://www.w3.org/2000/svg" p-id="5744" data-darkreader-inline-fill="" xmlns:xlink="http://www.w3.org/1999/xlink" width="200" height="200">
    <path d="M509.226667 167.722667l-222.442667 184.341333c-16.704 13.866667-43.178667 23.402667-64.896 23.402667H170.730667A42.666667 42.666667 0 0 0 128 418.090667v187.434666c0 23.466667 19.178667 42.624 42.730667 42.624H221.866667c21.802667 0 48.170667 9.536 64.896 23.402667l222.421333 184.32V167.744zM259.541333 704.426667c-9.045333-7.509333-25.770667-13.589333-37.674666-13.589334H170.730667A85.418667 85.418667 0 0 1 85.333333 605.525333v-187.434666A85.333333 85.333333 0 0 1 170.730667 332.8H221.866667c11.776 0 28.629333-6.08 37.674666-13.589333L519.125333 104.106667c18.090667-14.997333 32.746667-8.170667 32.746667 15.402666v784.64c0 23.488-14.677333 30.378667-32.746667 15.402667L259.562667 704.405333z" fill="#ffffff" p-id="5745" style="--darkreader-inline-fill: var(--darkreader-background-ffffff, #181a1b);" data-darkreader-inline-fill=""></path>
</svg>